<svg width="40" height="40" viewBox="0 0 40 40" fill="none" xmlns="http://www.w3.org/2000/svg">
<path d="M4 10C4 8.89543 4.89543 8 6 8H30C30.5523 8 31 8.44772 31 9V31C31 31.5523 30.5523 32 30 32H6C4.89543 32 4 31.1046 4 30V10Z" fill="#DDC493"/>
<path d="M11 13C11 12.4477 11.4477 12 12 12H31V28H12C11.4477 28 11 27.5523 11 27V13Z" fill="#D6B472"/>
<path d="M6.01196 9.33228C6.94509 9.87501 7.97338 10.254 8.55052 11.1985C8.77132 11.5598 9.22289 12.1108 9.22289 12.5432" stroke="#D0B580" stroke-width="0.8" stroke-linecap="round"/>
<path d="M5.271 30.8208C6.69032 29.7222 8.04944 28.6493 9.8404 28.3508" stroke="#D0B580" stroke-width="0.8" stroke-linecap="round"/>
<path d="M27.9945 8.96179C27.9945 9.6614 27.9297 10.0208 28.3101 10.5741C28.6344 11.0458 28.7293 11.5923 29.2295 11.9257" stroke="#D0B580" stroke-width="0.8" stroke-linecap="round"/>
<path d="M24.5366 8.71478C23.8918 9.82372 23.6721 11.0406 24.5366 12.0492" stroke="#D0B580" stroke-width="0.8" stroke-linecap="round"/>
<path d="M19.8437 9.2088C19.8437 10.0343 19.6752 11.0312 20.4612 11.5552" stroke="#D0B580" stroke-width="0.8" stroke-linecap="round"/>
<path d="M28.7355 31.6853C27.9702 31.0635 27.5005 30.0755 27.5005 29.0919" stroke="#D0B580" stroke-width="0.8" stroke-linecap="round"/>
<path d="M25.5245 31.4383C24.7873 30.7011 24.0952 29.7784 23.9191 28.7214" stroke="#D0B580" stroke-width="0.8" stroke-linecap="round"/>
<path d="M20.9551 31.5618C20.2634 30.8701 19.8437 30.3528 19.8437 29.3388" stroke="#D0B580" stroke-width="0.8" stroke-linecap="round"/>
<path d="M7.61743 10.4437C8.26261 11.1659 8.87896 11.9436 9.60711 12.5843C9.88188 12.8261 10.0179 13.0603 10.0874 13.4077" stroke="#D0B580" stroke-width="0.8" stroke-linecap="round"/>
<path d="M13.4218 8.83826C14.0907 9.87193 14.7427 10.7659 14.1628 11.9257" stroke="#D0B580" stroke-width="0.8" stroke-linecap="round"/>
<path d="M12.8043 28.7214C13.3608 29.1598 14.2804 30.8238 13.2983 31.3148" stroke="#D0B580" stroke-width="0.8" stroke-linecap="round"/>
<rect x="16.25" y="15.25" width="13.5" height="9.5" stroke="#CFA95F" stroke-width="0.5"/>
<path d="M11.4056 15.6619C12.6189 15.1289 13.7776 14.6989 15.1134 14.6805C15.7065 14.6723 16.2909 14.6965 16.8654 14.8606C17.6448 15.0833 18.4025 15.3033 19.2005 15.4581C20.1404 15.6404 21.1227 15.6654 22.0762 15.7425C23.0277 15.8195 23.9908 15.7972 24.9448 15.7876C25.9128 15.7778 26.8123 15.6845 27.7493 15.4486C28.4057 15.2833 29.1277 15.2224 29.6269 14.7231" stroke="#CFA95F" stroke-width="0.8" stroke-linecap="round"/>
<path d="M11.619 20.612C13.3631 19.7817 15.5022 19.0974 17.413 19.7775C18.1822 20.0513 18.9085 20.4071 19.7031 20.612C20.7094 20.8715 21.7484 20.9195 22.7803 20.9961C23.9219 21.0807 25.0774 21.1632 26.2226 21.1051C27.0153 21.0649 27.6844 20.831 28.3894 20.484C29.0966 20.1359 29.7995 19.7699 30.523 19.4598" stroke="#CFA95F" stroke-width="0.8" stroke-linecap="round"/>
<path d="M11.2776 25.7327C12.1429 25.199 13.0582 24.675 14.0561 24.4359C14.5301 24.3223 15.0235 24.3177 15.507 24.2771C16.1139 24.226 16.7173 24.1338 17.3253 24.0969C18.3358 24.0355 19.3785 24.0969 20.3479 24.4098C21.1843 24.6798 21.9469 25.1925 22.7661 25.5193C23.5206 25.8203 24.3654 25.8716 25.1652 25.9626C25.7282 26.0267 26.292 26.0371 26.8579 26.0527C27.3301 26.0658 27.7885 26.0827 28.2519 25.9745C28.9938 25.8012 29.7568 25.5471 30.4804 25.306" stroke="#CFA95F" stroke-width="0.8" stroke-linecap="round"/>
<path d="M26.4265 12.2481C24.9335 12.972 23.7225 14.3378 23.2853 15.9488C22.6757 18.1945 24.3068 20.0957 24.6058 22.2359C24.6913 22.8481 24.7658 23.4851 24.7551 24.104C24.7436 24.7708 24.5434 25.4055 24.3308 26.0314C24.1555 26.5473 23.9378 27.0402 23.6954 27.5249" stroke="#CFA95F" stroke-width="0.8" stroke-linecap="round"/>
<path d="M18.1906 12.1628C17.1159 12.6288 16.1208 13.4084 15.8744 14.6165C15.5931 15.9964 15.7697 17.4244 16.057 18.7889C16.2808 19.8518 16.7211 21.0461 16.5525 22.1529C16.4412 22.8833 15.9089 23.5442 15.6563 24.2297C15.3495 25.0625 15.1554 25.9796 15.3932 26.8469C15.458 27.0831 15.562 27.554 15.8436 27.6103" stroke="#CFA95F" stroke-width="0.8" stroke-linecap="round"/>
<path d="M18.788 13.1442C20.1859 13.3649 21.6424 13.3149 23.0553 13.3149" stroke="#CFA95F" stroke-width="0.8" stroke-linecap="round"/>
<path d="M12.8992 13.1442C13.17 13.1217 13.4386 13.1116 13.71 13.1016" stroke="#CFA95F" stroke-width="0.8" stroke-linecap="round"/>
<path d="M12.6005 16.7714C13.4222 17.1629 14.2491 17.5422 15.0755 17.9236" stroke="#CFA95F" stroke-width="0.8" stroke-linecap="round"/>
<path d="M13.4966 21.7642C13.9286 22.2359 14.4539 22.5767 14.9902 22.9163" stroke="#CFA95F" stroke-width="0.8" stroke-linecap="round"/>
<path d="M12.8565 26.6288L13.7953 26.9702" stroke="#CFA95F" stroke-width="0.8" stroke-linecap="round"/>
<path d="M18.2333 26.4581C19.0749 26.4121 19.8786 26.3173 20.7083 26.2021" stroke="#CFA95F" stroke-width="0.8" stroke-linecap="round"/>
<path d="M27.792 27.0129C28.4181 27.0074 29.0437 26.9863 29.6696 26.9702" stroke="#CFA95F" stroke-width="0.8" stroke-linecap="round"/>
<path d="M26.5971 22.7456C27.0928 22.7269 27.5664 22.6864 28.048 22.6176" stroke="#CFA95F" stroke-width="0.8" stroke-linecap="round"/>
<path d="M26.5544 18.521L28.3467 18.009" stroke="#CFA95F" stroke-width="0.8" stroke-linecap="round"/>
<path d="M19.1721 17.6249L20.0255 17.6676" stroke="#CFA95F" stroke-width="0.8" stroke-linecap="round"/>
<path d="M20.1962 21.7642C20.7447 21.9521 21.2483 21.9882 21.8178 22.0629" stroke="#CFA95F" stroke-width="0.8" stroke-linecap="round"/>
<path d="M27.7066 13.7844C28.0217 13.7044 28.3331 13.6175 28.6454 13.5283" stroke="#CFA95F" stroke-width="0.8" stroke-linecap="round"/>
<path d="M30.4804 12.0348C29.6484 12.0348 28.8106 12.035 27.9816 12.0988C26.3632 12.2233 24.7001 12.1201 23.0766 12.1201C21.5396 12.1201 20.0026 12.1201 18.4656 12.1201C17.2865 12.1201 16.0705 12.2056 14.8953 12.1107C13.8841 12.0289 12.8294 11.998 11.8513 12.2719C10.9358 12.5282 10.7656 13.4013 10.7656 14.2561C10.7656 14.9572 10.8298 15.6623 10.8485 16.3637C10.8736 17.3025 10.8009 18.248 10.8746 19.1848C10.9925 20.6833 11.0643 22.1589 11.0643 23.6631C11.0643 24.1204 11.119 24.5939 11.1591 25.05C11.1849 25.3431 11.1142 25.5848 11.1069 25.8702C11.1023 26.0529 11.1289 26.2487 11.0975 26.4297C11.0617 26.6356 11.0101 26.9956 11.1259 27.1931C11.2612 27.4239 11.183 27.6059 11.4341 27.7478C11.664 27.8778 11.9494 27.9053 12.2046 27.9517C12.5863 28.0211 12.9714 28.0811 13.3544 28.1437C14.0895 28.264 14.8522 28.2078 15.5947 28.2078C17.2378 28.2078 18.8798 28.2078 20.5234 28.2078C23.0581 28.2078 25.5849 28.1224 28.1191 28.1224C28.683 28.1224 29.2343 28.2078 29.7976 28.2078C29.9674 28.2078 30.1409 28.1806 30.2907 28.2599C30.37 28.3019 30.4045 28.203 30.4804 28.1651" stroke="#CFA95F" stroke-width="0.8" stroke-linecap="round"/>
<path d="M19.5134 12.1201C19.4822 15.0914 19.3854 18.0572 19.3854 21.0292C19.3854 22.6147 19.3077 24.2446 19.5561 25.8181" stroke="#CFA95F" stroke-width="0.8" stroke-linecap="round"/>
<path d="M23.1833 12.7602C23.0569 15.5611 23.0366 18.4123 23.4394 21.1952C23.6245 22.4741 23.8782 23.7387 24.1221 25.0073" stroke="#CFA95F" stroke-width="0.8" stroke-linecap="round"/>
<path d="M27.2372 12.5042C27.7849 16.9285 28.1686 21.3651 28.3467 25.818" stroke="#CFA95F" stroke-width="0.8" stroke-linecap="round"/>
<path d="M11.2776 22.3616C14.0512 22.3864 16.8164 22.4646 19.5846 22.6461C20.6591 22.7165 21.7188 22.8641 22.7898 22.9542C24.1642 23.0699 25.5599 23.0443 26.9385 23.0443" stroke="#CFA95F" stroke-width="0.8" stroke-linecap="round"/>
<path d="M13.5393 17.4115C16.6337 17.4969 19.7291 17.5535 22.823 17.6581C23.761 17.6898 24.7134 17.6988 25.6441 17.843C26.6438 17.9978 27.6357 18.0554 28.6454 18.0943" stroke="#CFA95F" stroke-width="0.8" stroke-linecap="round"/>
</svg>
