<svg width="40" height="40" viewBox="0 0 40 40" fill="none" xmlns="http://www.w3.org/2000/svg">
<rect width="26.069" height="40" rx="1" transform="matrix(-1 0 0 1 33.0345 0)" fill="#F2F2F2"/>
<rect x="-0.15" y="0.15" width="25.769" height="39.7" rx="0.85" transform="matrix(-1 0 0 1 32.7345 0)" stroke="black" stroke-opacity="0.2" stroke-width="0.3"/>
<rect width="11.5862" height="9" rx="2" transform="matrix(-1 0 0 1 32.069 1)" fill="#B9E6F0"/>
<rect width="11.5862" height="9" rx="2" transform="matrix(-1 0 0 1 19.5172 1)" fill="#B9E6F0"/>
<path d="M12.3403 10.6204L12.3401 10.6207L12.3336 10.6109L9.92732 7.00154C9.59348 6.50078 9.03147 6.2 8.42963 6.2H6.5C6.33431 6.2 6.2 6.33431 6.2 6.5V37C6.2 37.9941 7.00589 38.8 8 38.8H29.986C31.4716 38.8 32.3176 37.102 31.4229 35.916L12.3403 10.6204Z" fill="#A5D8F5" stroke="#7CCDFC" stroke-width="0.4"/>
<path d="M9.5 6.5C9.5 6.5 9 22 13.5 20.5C18 19 14 28 21.5 30.5C29 33 27.4 35.5 31 35.5" stroke="#7CCDFC" stroke-width="0.5"/>
<path d="M11.1369 12.0261C11.388 12.4793 11.6972 12.8944 11.705 13.4254C11.7148 14.0929 11.6208 14.7548 11.6208 15.419C11.6208 16.3971 13.3783 16.6559 13.8828 17.3285" stroke="#7CCDFC" stroke-width="0.3" stroke-linecap="round"/>
<path d="M16.2499 17.5179C17.4466 19.1086 18.2245 20.5052 18.2383 22.5362C18.2438 23.3444 18.1452 24.234 18.6012 24.9506C19.0567 25.6663 20.0643 26.273 20.8211 26.6392C21.1455 26.7962 21.4829 26.8762 21.8153 27.0074C22.3976 27.2373 22.4142 27.8566 22.5464 28.3856C22.6673 28.8691 23.0378 29.2541 23.4039 29.5744C23.703 29.8361 24.1793 29.98 24.3928 30.3003" stroke="#7CCDFC" stroke-width="0.3" stroke-linecap="round"/>
<path d="M20.2267 23.1989C20.8809 23.7916 21.6942 24.3805 22.2098 25.1084C22.6817 25.7746 22.9509 26.593 23.3092 27.323C23.5366 27.7865 23.693 28.2811 24.0772 28.6433C24.4969 29.0391 25.0287 29.3556 25.529 29.6375C26.1853 30.0073 26.5762 30.7098 26.8967 31.3418C27.2589 32.0562 28.0735 32.45 28.3696 33.1409" stroke="#7CCDFC" stroke-width="0.3" stroke-linecap="round"/>
<path d="M13.22 14.2986C14.0426 15.3125 14.6403 16.6604 14.6403 17.9913" stroke="#7CCDFC" stroke-width="0.3" stroke-linecap="round"/>
<path d="M17.4808 24.9033C17.7314 25.494 17.9832 26.066 18.3119 26.6181C18.5714 27.0539 18.8741 27.8002 19.3324 28.0752C19.9679 28.4565 20.8374 28.4536 21.5522 28.5013" stroke="#7CCDFC" stroke-width="0.3" stroke-linecap="round"/>
<path d="M15.5871 19.4115C16.0048 19.985 16.6286 20.5571 16.6286 21.3052" stroke="#7CCDFC" stroke-width="0.3" stroke-linecap="round"/>
<path d="M25.1503 14.4879C25.7248 15.416 26.1819 16.4077 26.5285 17.4442C26.818 18.3101 26.8271 19.1299 26.9125 20.0217C27.0543 21.5036 27.6207 22.6135 28.3696 23.8617" stroke="#D8D8D8" stroke-width="0.3" stroke-linecap="round"/>
<path d="M28.3696 13.7304C28.9473 15.3404 29.7715 16.8818 29.2743 18.5804C28.8535 20.0182 28.8894 21.5256 28.843 23.0096" stroke="#D8D8D8" stroke-width="0.3" stroke-linecap="round"/>
<path d="M22.8778 15.1507C22.8299 16.898 22.4314 18.7506 23.104 20.432C23.3839 21.1318 23.812 21.7692 24.1508 22.4415C24.6806 23.4926 25.1129 24.5612 25.529 25.6607" stroke="#D8D8D8" stroke-width="0.3" stroke-linecap="round"/>
<path d="M19.5639 13.257C20.1675 14.5045 20.4048 16.0462 20.5107 17.4232" stroke="#D8D8D8" stroke-width="0.3" stroke-linecap="round"/>
<path d="M29.5058 27.6491C29.7226 29.2483 28.6182 30.1151 27.044 30.3003" stroke="#D8D8D8" stroke-width="0.3" stroke-linecap="round"/>
<path d="M32.2516 20.169C32.4745 20.7911 32.581 21.169 32.42 21.7997C32.1903 22.6993 32.2516 23.6122 32.2516 24.535C32.2516 25.3018 32.0125 25.8806 31.8413 26.6181C31.618 27.5802 31.6518 28.6521 31.4942 29.6375" stroke="#D8D8D8" stroke-width="0.3" stroke-linecap="round"/>
<path d="M29.6569 3.64807C29.8222 4.54055 29.6569 5.13713 29.6569 5.99452" stroke="#A4DFEC" stroke-width="0.3" stroke-linecap="round"/>
<path d="M24.47 3.77158C23.5675 4.98436 24.5334 6.39399 23.6055 7.47649" stroke="#A4DFEC" stroke-width="0.3" stroke-linecap="round"/>
<path d="M29.2864 8.71146C29.8279 7.4807 28.8832 7.39858 27.8524 7.4902C26.8875 7.57598 26.0859 7.97047 25.0875 7.97047" stroke="#A4DFEC" stroke-width="0.3" stroke-linecap="round"/>
<path d="M29.1629 4.75955C28.4507 4.75955 27.7792 4.71176 27.1389 5.07515C26.5549 5.40664 26.0177 5.86837 25.458 6.24152" stroke="#A4DFEC" stroke-width="0.3" stroke-linecap="round"/>
<path d="M22.1236 4.88306C22.1788 5.87111 21.9029 7.61156 22.6313 8.45076C23.077 8.96431 23.7058 9.26841 24.223 9.69945" stroke="#A4DFEC" stroke-width="0.3" stroke-linecap="round"/>
</svg>
