<svg width="40" height="40" viewBox="0 0 40 40" fill="none" xmlns="http://www.w3.org/2000/svg">
<rect x="16.9" y="22.1" width="2.8" height="5.8" rx="1.4" transform="rotate(90 16.9 22.1)" fill="#DDD693" stroke="#C9C9C9" stroke-width="0.2"/>
<rect x="16.9" y="15.1" width="2.8" height="5.8" rx="1.4" transform="rotate(90 16.9 15.1)" fill="#DDD693" stroke="#C9C9C9" stroke-width="0.2"/>
<rect x="12.15" y="13.15" width="3.7" height="13.7" rx="1.85" fill="#F8F2C0" stroke="#E8DF99" stroke-width="0.3"/>
<circle cx="14" cy="20" r="4" transform="rotate(90 14 20)" fill="#FFFBD5"/>
<path d="M14 24C11.7909 24 10 22.2091 10 20C10 17.7909 11.7909 16 14 16C15.5 16.5 15 17.7909 15 20C15 22.2091 18.5 22 14 24Z" fill="#3A311F"/>
<path d="M17.241 20.4706C17.241 20.6246 17.2361 20.7389 17.1964 20.8858C17.1688 20.9883 17.1579 21.1169 17.1156 21.2119C17.0334 21.3969 17.0404 21.5735 17.0404 21.7749" stroke="#7C5830" stroke-width="0.3" stroke-linecap="round"/>
<path d="M17.241 19.3418C17.241 19.1118 17.2812 18.8617 17.1463 18.6645C17.0121 18.4684 17.0153 18.1639 17.0153 17.9371" stroke="#7C5830" stroke-width="0.3" stroke-linecap="round"/>
<path d="M34.8213 19.0425C35.7701 19.3283 35.7701 20.6717 34.8213 20.9575L22.0384 24.808C21.3966 25.0014 20.75 24.5209 20.75 23.8505V16.1495C20.75 15.4791 21.3966 14.9986 22.0384 15.192L34.8213 19.0425Z" fill="#FBFF38" fill-opacity="0.7"/>
</svg>
