<svg width="40" height="40" viewBox="0 0 40 40" fill="none" xmlns="http://www.w3.org/2000/svg">
<rect x="16" width="8" height="40" fill="#435C74"/>
<rect y="24" width="8" height="40" transform="rotate(-90 0 24)" fill="#435C74"/>
<path d="M0 17.5C3 17.5 5.36585 22 11.2195 22C17.0732 22 16.0976 18 21.9512 18C27.8049 18 27.3171 22 30.7317 22C34.1463 22 34.5 17.5 40 17.5" stroke="#4D96A6"/>
<path d="M0 22.5C3 22.5 5.36585 17.5 11.2195 17.5C17.0732 17.5 16.0976 21.5 21.9512 21.5C27.8049 21.5 27.3171 17.5 30.7317 17.5C34.1463 17.5 34.5 22.5 40 22.5" stroke="#4D96A6"/>
<path d="M22.5 0C22.5 3 18 5.36585 18 11.2195C18 17.0732 22 16.0976 22 21.9512C22 27.8049 18 27.3171 18 30.7317C18 34.1463 22.5 34.5 22.5 40" stroke="#4D96A6"/>
<path d="M17.5 0C17.5 3 22.5 5.36585 22.5 11.2195C22.5 17.0732 18.5 16.0976 18.5 21.9512C18.5 27.8049 22.5 27.3171 22.5 30.7317C22.5 34.1463 17.5 34.5 17.5 40" stroke="#4D96A6"/>
</svg>
