<svg width="40" height="40" viewBox="0 0 40 40" fill="none" xmlns="http://www.w3.org/2000/svg">
<path d="M21.7826 3.23267C21.3546 3.10542 21.117 2.64904 21.2582 2.22542V2.22542C21.393 1.82099 21.8243 1.59642 22.233 1.71791L39.2174 6.76733C39.6454 6.89458 39.883 7.35096 39.7418 7.77458V7.77458C39.607 8.17901 39.1757 8.40358 38.767 8.28209L21.7826 3.23267Z" fill="#4D3A1F"/>
<path d="M38.338 29.7613C38.7242 29.6089 39.1645 29.7467 39.3948 30.0922V30.0922C39.7062 30.5592 39.5073 31.1945 38.9851 31.4006L21.662 38.2387C21.2758 38.3911 20.8355 38.2533 20.6052 37.9078V37.9078C20.2938 37.4408 20.4927 36.8055 21.0149 36.5994L38.338 29.7613Z" fill="#4D3A1F"/>
<rect y="1" width="22" height="38" rx="1" fill="#896837"/>
<rect x="0.25" y="1.25" width="21.5" height="37.5" rx="0.75" stroke="black" stroke-opacity="0.44" stroke-width="0.5"/>
</svg>
