<svg width="40" height="40" viewBox="0 0 40 40" fill="none" xmlns="http://www.w3.org/2000/svg">
<path d="M30 3.25H10C9.58579 3.25 9.25 3.58579 9.25 4V36C9.25 36.4142 9.58579 36.75 10 36.75H30C30.4142 36.75 30.75 36.4142 30.75 36V4C30.75 3.58579 30.4142 3.25 30 3.25Z" fill="#DFCF7D" stroke="#5A4124" stroke-width="0.5"/>
<rect x="0.1" y="0.1" width="3.8" height="6.8" rx="0.9" transform="matrix(0 1 1 0 20 7)" fill="#1BFFE4" stroke="#2E2E2E" stroke-width="0.2"/>
<path d="M22 7.5C21.6667 8 21.2 9.3 22 10.5" stroke="#D10303" stroke-width="0.5"/>
<path d="M26 9.4C26.2209 9.4 26.4 9.22091 26.4 9C26.4 8.77909 26.2209 8.6 26 8.6C25.7791 8.6 25.6 8.77909 25.6 9C25.6 9.22091 25.7791 9.4 26 9.4Z" stroke="#2C2C2C" stroke-width="0.2"/>
<path d="M23.5 8C23.1667 8.33333 22.7 9.2 23.5 10" stroke="#D10303" stroke-width="0.5"/>
<path d="M25 8.5C24.8333 8.66667 24.6 9.1 25 9.5" stroke="#D10303" stroke-width="0.5"/>
<path d="M20.1 8.25V9.75C20.1 9.83284 20.1672 9.9 20.25 9.9C20.3328 9.9 20.4 9.83284 20.4 9.75V8.25C20.4 8.16716 20.3328 8.1 20.25 8.1C20.1672 8.1 20.1 8.16716 20.1 8.25Z" fill="#292929" stroke="#292929" stroke-width="0.2"/>
<rect width="9" height="11" rx="1" transform="matrix(-1 0 0 1 28 20)" fill="white"/>
<path d="M27.9595 25.2174C26.8767 25.0719 25.7492 25.182 24.6595 25.1923C24.2158 25.1965 23.7703 25.2283 23.3273 25.255C22.8739 25.2823 22.4184 25.2677 21.9644 25.287C21.379 25.312 20.7889 25.2926 20.2029 25.2926C19.8592 25.2926 19.4904 25.3263 19.155 25.2425" stroke="#D8D8D8" stroke-width="0.4" stroke-linecap="round"/>
<path d="M20.5848 24.0886C20.6786 23.8369 20.8366 23.5406 20.8607 23.2664C20.8691 23.1711 20.8019 23.0707 20.7632 22.9891C20.6761 22.8052 20.6999 22.5899 20.7855 22.4093C20.9418 22.0793 20.4284 21.8877 20.3646 21.6025C20.3273 21.4355 20.4577 21.2382 20.5346 21.1036" stroke="#383838" stroke-width="0.2" stroke-linecap="round"/>
<path d="M22.1149 24.2391C22.2809 24.0681 22.5393 23.8099 22.5427 23.5479C22.5479 23.1562 22.2769 22.8837 22.4048 22.4818C22.5004 22.1813 22.5495 21.9306 22.4828 21.6248C22.4459 21.4555 22.5056 21.3308 22.5664 21.1788" stroke="#383838" stroke-width="0.2" stroke-linecap="round"/>
<path d="M24.1216 24.1889C24.0839 23.9187 24.0433 23.649 24.0269 23.3765C24.019 23.2456 24.0016 23.0804 24.0617 22.957C24.0872 22.9046 24.133 22.9018 24.1606 22.8595C24.2371 22.7422 24.2379 22.5526 24.2401 22.4205C24.2437 22.2024 24.1507 21.9749 24.2024 21.7613C24.2459 21.5817 24.2464 21.4372 24.222 21.2541" stroke="#383838" stroke-width="0.2" stroke-linecap="round"/>
<path d="M20.0079 29.9833C20.0351 29.5681 20.0991 29.1328 20.0232 28.7194C20.0023 28.6059 19.9889 28.4765 19.9939 28.3612C20.0034 28.1454 20.1114 27.9782 20.2016 27.7899C20.3221 27.5382 20.2304 27.2936 20.1639 27.0415C20.1222 26.8833 20.133 26.7857 20.1779 26.636C20.2223 26.4881 20.1802 26.3415 20.1221 26.204C20.0425 26.0153 20.0793 25.9583 20.1333 25.7692" stroke="#383838" stroke-width="0.2" stroke-linecap="round"/>
<path d="M25.9527 23.9631C25.961 23.6018 26.0372 23.3464 26.3123 23.1019C26.5731 22.8701 26.16 22.3448 26.1841 22.0498C26.2015 21.8369 26.4377 21.7527 26.4447 21.53C26.451 21.3262 26.2647 21.169 26.3792 20.9781" stroke="#383838" stroke-width="0.2" stroke-linecap="round"/>
<path d="M26.5666 27.7774L22.0932 25.988L21.6727 26.4571L26.4031 28.2027C26.4865 28.2335 26.5802 28.2129 26.6431 28.1501C26.7588 28.0344 26.7185 27.8381 26.5666 27.7774Z" fill="#34329B" stroke="#A2A0F2" stroke-width="0.2"/>
</svg>
