<svg width="40" height="40" viewBox="0 0 40 40" fill="none" xmlns="http://www.w3.org/2000/svg">
<rect width="26.069" height="40" rx="1" transform="matrix(-1 0 0 1 33.0345 0)" fill="#F2F2F2"/>
<rect x="-0.15" y="0.15" width="25.769" height="39.7" rx="0.85" transform="matrix(-1 0 0 1 32.7345 0)" stroke="black" stroke-opacity="0.2" stroke-width="0.3"/>
<rect width="11.5862" height="9" rx="2" transform="matrix(-1 0 0 1 32.069 1)" fill="#B9E6F0"/>
<rect width="11.5862" height="9" rx="2" transform="matrix(-1 0 0 1 19.5172 1)" fill="#B9E6F0"/>
<path d="M6.2 11V37C6.2 37.9941 7.00589 38.8 8 38.8H32C32.9941 38.8 33.8 37.9941 33.8 37V11.2257C33.8 10.4236 33.2694 9.71835 32.4987 9.49613L31.5382 9.21916C31.5021 9.20877 31.4644 9.20572 31.4271 9.21019L27.1677 9.72196C26.8488 9.76027 26.7065 9.40908 26.8486 9.2H21.5H8C7.00589 9.2 6.2 10.0059 6.2 11Z" fill="#A5D8F5" stroke="#7CCDFC" stroke-width="0.4"/>
<circle r="2.5" transform="matrix(-1 0 0 1 25.5 6.5)" fill="#FFFBD4"/>
<path d="M25.9732 5.65633C26.157 5.72473 26.3514 5.69617 26.5425 5.67844C26.6916 5.66461 26.8518 5.67449 26.998 5.64076C27.0322 5.63287 27.0588 5.61209 27.0938 5.61209" stroke="#7C5830" stroke-width="0.3" stroke-linecap="round"/>
<path d="M25.1769 5.73005C25.0056 5.73005 24.8674 5.68976 24.701 5.64895C24.5423 5.61003 24.4255 5.59852 24.2628 5.61209" stroke="#7C5830" stroke-width="0.3" stroke-linecap="round"/>
<path d="M23.3633 5.44991C23.4326 5.34892 23.4969 5.24767 23.555 5.14027C23.593 5.06989 23.654 5.01261 23.6934 4.94285C23.7572 4.83011 23.8436 4.731 23.9416 4.64713C24.1152 4.49871 24.3746 4.44968 24.5904 4.38991C24.8718 4.312 25.1881 4.27345 25.48 4.27032C25.6023 4.269 25.7188 4.23326 25.8397 4.2269C25.9497 4.22111 26.0613 4.22608 26.1714 4.22608C26.3263 4.22608 26.46 4.24096 26.6007 4.31127C26.7137 4.36782 26.8574 4.45428 26.9382 4.55211C27.0417 4.67762 27.1505 4.78244 27.2642 4.89616C27.347 4.97902 27.4133 5.08161 27.4919 5.16894C27.6318 5.32441 27.7549 5.47811 27.831 5.67764C27.8411 5.70403 27.9128 5.84422 27.9007 5.74154C27.8707 5.4865 27.7063 5.26111 27.5492 5.06818C27.2811 4.73894 27.0649 4.40427 26.6654 4.22117C26.4366 4.11629 26.1664 4.09045 25.9175 4.09338C25.7351 4.09552 25.561 4.16383 25.385 4.20314C25.1027 4.26622 24.8227 4.27854 24.579 4.44726C24.5643 4.45743 24.5396 4.48985 24.52 4.48985C24.4659 4.48985 24.4969 4.41702 24.5159 4.39729C24.6049 4.30483 24.7402 4.28273 24.8575 4.24902C25.0912 4.18185 25.3285 4.16966 25.5652 4.12287C25.5818 4.11959 25.664 4.10622 25.598 4.09256C25.3954 4.05065 25.1578 4.05017 24.9517 4.06716C24.7181 4.08642 24.4756 4.20227 24.2841 4.33257C24.1949 4.39327 24.0186 4.4782 23.9998 4.60044C23.993 4.64444 24.8795 4.64919 24.9591 4.62911C25.1449 4.58219 25.3257 4.4631 25.4989 4.38336C25.6042 4.33485 25.7113 4.30062 25.811 4.24083" stroke="#7C5830" stroke-width="0.4" stroke-linecap="round"/>
<path d="M30.5669 10.7024C30.8686 11.194 31.3241 11.6253 31.5626 12.1485C31.9371 12.97 31.7547 14.0078 31.6361 14.8677C31.5425 15.5464 31.4254 16.2215 31.3113 16.897C31.132 17.9586 30.7579 18.9918 30.638 20.0619C30.5911 20.4809 30.5918 20.9232 30.638 21.3421C30.6772 21.6974 30.8197 22.0137 30.9225 22.352C31.2188 23.3274 31.6281 24.2624 31.7499 25.2846C31.8497 26.1223 31.9149 27.0391 31.757 27.8734C31.6477 28.4505 31.3082 28.9738 31.0339 29.4831C30.5437 30.3936 29.9379 31.3032 29.6281 32.2948" stroke="#7CCDFC" stroke-width="0.4" stroke-linecap="round"/>
<path d="M21.9043 10.0623C22.0868 12.7996 21.8765 15.5969 21.4681 18.3028C21.3233 19.2624 21.1751 20.2184 21.0888 21.1856C21.004 22.1361 21.0004 23.0894 20.9276 24.0399C20.8676 24.8235 20.7075 25.5559 20.4629 26.3016C20.2575 26.9281 19.994 27.5352 19.8276 28.1745C19.6437 28.8808 19.5127 29.6505 19.4483 30.3792C19.4002 30.9226 19.4315 31.4502 19.2965 31.9866C19.0062 33.1401 18.3438 34.1025 17.6797 35.0685" stroke="#7CCDFC" stroke-width="0.4" stroke-linecap="round"/>
<path d="M25.8729 27.174C25.5527 29.0475 25.2598 30.9285 24.9127 32.7974C24.8076 33.3633 24.557 33.89 24.3509 34.4237C24.214 34.7782 24.1304 35.1015 24.0901 35.4763C24.0469 35.8775 23.8681 36.1482 23.6539 36.4767" stroke="#7CCDFC" stroke-width="0.4" stroke-linecap="round"/>
<path d="M23.1845 30.8866C22.6991 31.3015 22.0407 31.396 21.5392 31.7637C21.2267 31.9929 20.9512 32.2539 20.6241 32.4655" stroke="#7CCDFC" stroke-width="0.4" stroke-linecap="round"/>
<path d="M31.463 31.1426C31.1584 32.3679 30.4309 33.6299 30.8656 34.8978C30.9936 35.2711 31.2313 35.6289 31.2568 36.031C31.2988 36.6944 30.7139 37.1476 30.3108 37.5862" stroke="#7CCDFC" stroke-width="0.4" stroke-linecap="round"/>
<path d="M20.8801 12.4946C20.9654 13.081 20.9496 13.6803 20.7261 14.2347C20.2494 15.4169 19.3307 16.3633 18.6185 17.402" stroke="#7CCDFC" stroke-width="0.4" stroke-linecap="round"/>
<path d="M20.4961 20.6878C19.6736 22.2177 18.7331 23.7126 17.7271 25.1281C17.2883 25.7456 16.8141 26.2008 16.2288 26.662" stroke="#7CCDFC" stroke-width="0.4" stroke-linecap="round"/>
<path d="M26.4276 13.1774C26.6637 13.6256 26.8679 14.0943 27.1199 14.5334C27.5922 15.3564 27.2463 16.2163 26.8947 17.0274C26.4947 17.9501 25.9791 18.8344 25.7449 19.8201C25.5345 20.7054 25.6266 21.5501 25.7449 22.4374" stroke="#7CCDFC" stroke-width="0.4" stroke-linecap="round"/>
<path d="M32.4445 18.8955C32.4545 19.6131 32.4778 20.3321 32.4136 21.0481C32.38 21.4239 32.2923 21.7915 32.2595 22.1671C32.1975 22.8781 32.255 23.6026 32.2738 24.3149" stroke="#7CCDFC" stroke-width="0.4" stroke-linecap="round"/>
<path d="M29.4574 10.2329C28.8797 10.5402 28.0769 10.487 27.4518 10.4036" stroke="#7CCDFC" stroke-width="0.4" stroke-linecap="round"/>
<path d="M26.1289 10.1476C25.643 9.9621 25.1631 9.82717 24.6401 9.81572C24.3594 9.80957 24.1072 9.92991 23.8435 10.0101C23.5699 10.0933 23.2912 10.1636 23.0138 10.233" stroke="#7CCDFC" stroke-width="0.4" stroke-linecap="round"/>
<path d="M17.5944 10.6597C17.3368 11.3258 17.1307 12.0225 16.8263 12.6653" stroke="#7CCDFC" stroke-width="0.4" stroke-linecap="round"/>
<path d="M10.4254 21.7119C9.59093 22.4646 8.74956 23.2108 7.92426 23.9736C7.69885 24.1819 7.79776 24.0653 7.73697 24.1869" stroke="#7CCDFC" stroke-width="0.4" stroke-linecap="round"/>
<path d="M11.4922 31.7827C10.2143 33.19 8.82457 34.4929 7.48092 35.8366" stroke="#7CCDFC" stroke-width="0.4" stroke-linecap="round"/>
</svg>
