<svg width="40" height="40" viewBox="0 0 40 40" fill="none" xmlns="http://www.w3.org/2000/svg">
<path d="M30.2475 20.2475C30.3842 20.1108 30.3842 19.8892 30.2475 19.7525L28.0201 17.5251C27.8834 17.3884 27.6618 17.3884 27.5251 17.5251C27.3884 17.6618 27.3884 17.8834 27.5251 18.0201L29.505 20L27.5251 21.9799C27.3884 22.1166 27.3884 22.3382 27.5251 22.4749C27.6618 22.6116 27.8834 22.6116 28.0201 22.4749L30.2475 20.2475ZM22 20.35H30V19.65H22V20.35Z" fill="#33EC46" fill-opacity="0.3"/>
<path d="M16 40H24V37C24 35.8954 23.1046 35 22 35H18C16.8954 35 16 35.8954 16 37V40Z" fill="#435C74"/>
<path d="M22.5 40C22.5 36.4286 20 37 20 35" stroke="#4D96A6"/>
<path d="M16 3C16 4.10457 16.8954 5 18 5L22 5C23.1046 5 24 4.10457 24 3V0L16 0V3Z" fill="#435C74"/>
<path d="M20 5C20 2.5 22.5 4.5 22.5 -1.14441e-05" stroke="#4D96A6"/>
<rect x="19" y="32" width="24" height="2" rx="1" transform="rotate(-90 19 32)" fill="#DDDE91"/>
<rect x="22" y="14" width="4" height="2" rx="1" transform="rotate(-90 22 14)" fill="#BD7100"/>
<path d="M21 12.5V11.5H22V12.5H21Z" fill="#BD7100"/>
<rect x="18" y="10" width="4" height="2" rx="1" transform="rotate(90 18 10)" fill="#BD7100"/>
<path d="M19 11.5V12.5H18V11.5H19Z" fill="#BD7100"/>
</svg>
