<svg width="40" height="40" viewBox="0 0 40 40" fill="none" xmlns="http://www.w3.org/2000/svg">
<path opacity="0.8" d="M9.75251 20.7525C9.61583 20.8892 9.61583 21.1108 9.75251 21.2475L11.9799 23.4749C12.1166 23.6116 12.3382 23.6116 12.4749 23.4749C12.6116 23.3382 12.6116 23.1166 12.4749 22.9799L10.495 21L12.4749 19.0201C12.6116 18.8834 12.6116 18.6618 12.4749 18.5251C12.3382 18.3884 12.1166 18.3884 11.9799 18.5251L9.75251 20.7525ZM18 20.65H10V21.35H18V20.65Z" fill="#33EC46" fill-opacity="0.3"/>
<path d="M16 40H24V37C24 35.8954 23.1046 35 22 35H18C16.8954 35 16 35.8954 16 37V40Z" fill="#435C74"/>
<path d="M22.5 40C22.5 36.4286 20 37 20 35" stroke="#4D96A6"/>
<path d="M16 3C16 4.10457 16.8954 5 18 5L22 5C23.1046 5 24 4.10457 24 3V0L16 0V3Z" fill="#435C74"/>
<path d="M20 5C20 2.5 22.5 4.5 22.5 -1.14441e-05" stroke="#4D96A6"/>
<rect x="19" y="32" width="24" height="2" rx="1" transform="rotate(-90 19 32)" fill="#DDDE91"/>
<rect x="22" y="14" width="4" height="2" rx="1" transform="rotate(-90 22 14)" fill="#BD7100"/>
<path d="M21 12.5V11.5H22V12.5H21Z" fill="#BD7100"/>
<rect x="18" y="10" width="4" height="2" rx="1" transform="rotate(90 18 10)" fill="#BD7100"/>
<path d="M19 11.5V12.5H18V11.5H19Z" fill="#BD7100"/>
</svg>
