<svg width="40" height="40" viewBox="0 0 40 40" fill="none" xmlns="http://www.w3.org/2000/svg">
<rect width="22" height="40" fill="#807C6F"/>
<path d="M16 40H24V37C24 35.8954 23.1046 35 22 35H18C16.8954 35 16 35.8954 16 37V40Z" fill="#435C74"/>
<path d="M22.5 40C22.5 36.4286 20 37 20 35" stroke="#4D96A6"/>
<path d="M16 3C16 4.10457 16.8954 5 18 5L22 5C23.1046 5 24 4.10457 24 3V0L16 0V3Z" fill="#435C74"/>
<path d="M20 5C20 2.5 22.5 4.5 22.5 -1.14441e-05" stroke="#4D96A6"/>
<path d="M19 32.15H21C21.4694 32.15 21.85 32.5306 21.85 33V34.85H18.15V33C18.15 32.5306 18.5306 32.15 19 32.15Z" fill="#BCBCBC" stroke="#8337FF" stroke-width="0.3"/>
<path d="M21 7.85H19C18.5306 7.85 18.15 7.46944 18.15 7V5.15H21.85V7C21.85 7.46944 21.4694 7.85 21 7.85Z" fill="#BCBCBC" stroke="#8337FF" stroke-width="0.3"/>
<g filter="url(#filter0_d_3_3902)">
<rect x="24" y="1" width="3" height="2" fill="#FF4343"/>
</g>
<path d="M19.5 6H20.5V6.5V7H19.5V6Z" fill="#8D8D8D"/>
<path d="M19.5 33H20.5V33.5V34H19.5V33Z" fill="#8D8D8D"/>
<line x1="20" y1="10" x2="20" y2="31" stroke="#5B5B5B" stroke-width="2"/>
<path d="M17.1978 8.77047C15.9687 8.03474 15.1758 7.44228 14.536 6.149C14.173 5.41522 13.8876 4.68783 13.7778 3.87841C13.7449 3.6357 13.6638 3.40399 13.5681 3.18069" stroke="#4B493C" stroke-width="0.8" stroke-linecap="round"/>
<path d="M16.7623 30.694C15.951 31.3224 14.9248 31.9614 14.4755 32.9324C14.0406 33.8723 13.8585 34.8183 13.8585 35.8482" stroke="#4B493C" stroke-width="0.8" stroke-linecap="round"/>
<path d="M3.62265 39.4054H12.4066" stroke="#4B493C" stroke-width="0.8" stroke-linecap="round"/>
<path d="M12.6244 1.36584C10.8205 1.37315 9.05662 1.60079 7.26044 1.64009C5.61296 1.67614 3.96376 1.65622 2.31595 1.65622" stroke="#4B493C" stroke-width="0.8" stroke-linecap="round"/>
<path d="M1.29962 6.30227C2.28386 6.22137 3.28626 6.08448 4.276 6.08448C4.37089 6.08448 4.3828 6.0803 4.42119 6.15708" stroke="#7C7968" stroke-width="0.8" stroke-linecap="round"/>
<path d="M2.8241 7.89935C5.88833 7.77348 8.98404 7.77173 12.0436 7.53638" stroke="#847F69" stroke-width="0.8" stroke-linecap="round"/>
<path d="M4.20343 14.0699C5.96136 13.8272 7.70196 13.5838 9.47863 13.5657C10.8646 13.5517 12.2409 13.5212 13.6246 13.4327C14.7921 13.3579 15.9561 13.3439 17.1253 13.3439" stroke="#847F69" stroke-width="0.8" stroke-linecap="round"/>
<path d="M2.46112 19.6597C3.48363 19.7991 4.51354 19.8132 5.54236 19.8855C8.38536 20.0855 11.203 20.1678 14.052 20.1678C14.8481 20.1678 15.6367 20.1164 16.4315 20.0993C16.622 20.0952 17.4618 19.9699 17.5608 20.1678" stroke="#847F69" stroke-width="0.8" stroke-linecap="round"/>
<path d="M2.38855 25.9754C6.26368 26.3466 10.2235 26.1206 14.1126 26.1206C15.1652 26.1206 16.2178 26.1206 17.2704 26.1206" stroke="#847F69" stroke-width="0.8" stroke-linecap="round"/>
<path d="M2.38855 31.6378C5.00045 31.5102 7.58258 31.42 10.1965 31.42C10.6255 31.42 11.5316 31.248 11.8984 31.4926" stroke="#847F69" stroke-width="0.8" stroke-linecap="round"/>
<path d="M2.02557 36.5016C3.87974 36.5075 5.75155 36.487 7.60325 36.6105C8.3207 36.6583 9.26849 36.4514 9.93838 36.7194" stroke="#847F69" stroke-width="0.8" stroke-linecap="round"/>
<path d="M10.5536 16.2908C10.5536 16.6948 10.6526 17.8661 11.172 17.9605C11.7954 18.0739 12.6293 17.9625 13.0705 17.4596C13.753 16.6817 12.624 15.1053 11.778 15.8455" stroke="#847F69" stroke-width="0.8" stroke-linecap="round"/>
<path d="M5.26605 22.5801C5.65442 23.0876 6.30207 24.2586 7.11513 23.9407C7.77397 23.683 8.71603 23.3106 8.20974 22.4812C7.85912 21.9068 7.31331 21.3237 6.58638 21.4206C6.25327 21.465 6.04029 21.8308 5.98961 22.1349" stroke="#847F69" stroke-width="0.8" stroke-linecap="round"/>
<path d="M6.2679 10.6137C6.21639 11.1763 6.08451 12.0061 6.77501 12.2463C7.54924 12.5156 8.07581 11.6578 8.40146 11.096C8.79738 10.413 8.36619 9.91704 7.66553 9.7355C7.31876 9.64564 6.56169 9.40507 6.21843 9.62418C6.06044 9.72503 5.84786 10.1369 5.78553 10.2488C5.5332 10.7016 5.28879 11.1588 5.04343 11.6155" stroke="#847F69" stroke-width="0.8" stroke-linecap="round"/>
<path d="M11.2771 28.3685C11.2884 28.9603 11.2242 29.6078 11.7502 29.9981C11.9895 30.1756 12.3552 29.923 12.5603 29.8095C13.0244 29.5525 13.5683 29.2334 13.8498 28.7643C14.3168 27.9859 13.4317 27.289 12.718 27.243C12.0731 27.2015 11.2679 27.3168 10.7391 27.7192C10.3635 28.005 10.241 28.4102 10.0526 28.8138" stroke="#847F69" stroke-width="0.8" stroke-linecap="round"/>
<path d="M3.8746 33.7674C3.99814 34.288 4.13746 34.9479 4.62908 35.264C5.50803 35.829 7.0316 35.2472 7.6779 34.5651C8.39128 33.8123 7.31508 32.868 6.60184 32.7346C6.19077 32.6577 5.71608 32.6288 5.30316 32.7161C4.91784 32.7975 4.80879 33.0363 4.59816 33.3221" stroke="#847F69" stroke-width="0.8" stroke-linecap="round"/>
<path d="M7.65934 5.49311C8.12602 5.93668 8.42463 6.22601 9.06935 6.14864C9.61176 6.08355 10.5318 5.62628 10.6154 5.01693C10.6829 4.5253 10.1806 4.13955 9.73724 4.14495C9.29486 4.15035 8.83447 4.26559 8.43237 4.44798C7.88218 4.69755 7.7441 5.10097 7.49237 5.60443" stroke="#847F69" stroke-width="0.8" stroke-linecap="round"/>
<defs>
<filter id="filter0_d_3_3902" x="23.8" y="0.3" width="5.4" height="4.4" filterUnits="userSpaceOnUse" color-interpolation-filters="sRGB">
<feFlood flood-opacity="0" result="BackgroundImageFix"/>
<feColorMatrix in="SourceAlpha" type="matrix" values="0 0 0 0 0 0 0 0 0 0 0 0 0 0 0 0 0 0 127 0" result="hardAlpha"/>
<feMorphology radius="0.2" operator="dilate" in="SourceAlpha" result="effect1_dropShadow_3_3902"/>
<feOffset dx="1" dy="0.5"/>
<feGaussianBlur stdDeviation="0.5"/>
<feComposite in2="hardAlpha" operator="out"/>
<feColorMatrix type="matrix" values="0 0 0 0 1 0 0 0 0 0.670833 0 0 0 0 0.670833 0 0 0 0.6 0"/>
<feBlend mode="normal" in2="BackgroundImageFix" result="effect1_dropShadow_3_3902"/>
<feBlend mode="normal" in="SourceGraphic" in2="effect1_dropShadow_3_3902" result="shape"/>
</filter>
</defs>
</svg>
