<svg width="40" height="40" viewBox="0 0 40 40" fill="none" xmlns="http://www.w3.org/2000/svg">
<path d="M16 40H24V37C24 35.8954 23.1046 35 22 35H18C16.8954 35 16 35.8954 16 37V40Z" fill="#435C74"/>
<path d="M22.5 40C22.5 36.4286 20 37 20 35" stroke="#4D96A6"/>
<path d="M16 3C16 4.10457 16.8954 5 18 5L22 5C23.1046 5 24 4.10457 24 3V0L16 0V3Z" fill="#435C74"/>
<path d="M20 5C20 2.5 22.5 4.5 22.5 -1.14441e-05" stroke="#4D96A6"/>
<path d="M19 20.15H21C21.4694 20.15 21.85 20.5306 21.85 21V34.85H18.15V21C18.15 20.5306 18.5306 20.15 19 20.15Z" fill="#BCBCBC" stroke="#8337FF" stroke-width="0.3"/>
<path d="M21 19.85H19C18.5306 19.85 18.15 19.4694 18.15 19V5.15H21.85L21.85 19C21.85 19.4694 21.4694 19.85 21 19.85Z" fill="#BCBCBC" stroke="#8337FF" stroke-width="0.3"/>
<rect x="24" y="1" width="3" height="2" fill="#BA2D2D"/>
<path d="M19.5 6H20.5V12.5V19H19.5V6Z" fill="#8D8D8D"/>
<path d="M19.5 21H20.5V27.5V34H19.5V21Z" fill="#8D8D8D"/>
</svg>
