<svg width="40" height="40" viewBox="0 0 40 40" fill="none" xmlns="http://www.w3.org/2000/svg">
<rect x="16.9" y="22.1" width="2.8" height="5.8" rx="1.4" transform="rotate(90 16.9 22.1)" fill="#004381" stroke="#C9C9C9" stroke-width="0.2"/>
<rect x="16.9" y="15.1" width="2.8" height="5.8" rx="1.4" transform="rotate(90 16.9 15.1)" fill="#004381" stroke="#C9C9C9" stroke-width="0.2"/>
<path d="M13.4 11C14.2837 11 15 11.7163 15 12.6L15 27.4C15 28.2837 14.2837 29 13.4 29V29C12.0745 29 11 27.9255 11 26.6V13.4C11 12.0745 12.0745 11 13.4 11V11Z" fill="#926B3D"/>
<path d="M14.3593 14C15.211 14 15.8524 13.2249 15.693 12.3883V12.3883C15.5789 11.7894 15.0796 11.34 14.4721 11.2893L12.557 11.1297C11.7188 11.0599 11 11.7213 11 12.5624V12.5624C11 13.3564 11.6436 14 12.4376 14H14.3593Z" fill="#926B3D"/>
<path d="M14.3593 26C15.211 26 15.8524 26.7751 15.693 27.6117V27.6117C15.5789 28.2106 15.0796 28.66 14.4721 28.7107L12.557 28.8703C11.7188 28.9401 11 28.2787 11 27.4376V27.4376C11 26.6436 11.6436 26 12.4376 26H14.3593Z" fill="#926B3D"/>
<path d="M14.5825 24.2507V25.5266" stroke="#7C5830" stroke-width="0.2" stroke-linecap="round"/>
<path d="M14.9423 26.3446C14.7575 26.4212 14.7513 26.4839 14.6479 26.639" stroke="#7C5830" stroke-width="0.2" stroke-linecap="round"/>
<path d="M15.3677 26.7045C15.4674 27.2657 15.5181 27.8503 15.0896 28.304C14.9691 28.4315 14.7483 28.5513 14.5897 28.6202C14.4942 28.6618 14.41 28.7454 14.3062 28.762C14.1799 28.7822 14.0683 28.8007 13.9463 28.8456C13.5403 28.9952 12.9938 28.9934 12.6521 28.7656" stroke="#7C5830" stroke-width="0.2" stroke-linecap="round"/>
<path d="M13.3392 28.7984C13.0874 28.8191 12.8838 28.8161 12.6449 28.7984C12.5369 28.7904 12.4762 28.7002 12.3577 28.7002C12.2358 28.7002 12.1406 28.6317 12.0378 28.5693C11.946 28.5136 11.8325 28.494 11.7361 28.4457C11.1117 28.1335 11.0163 27.4246 11.0163 26.7845C11.0163 26.3832 10.9836 25.9894 10.9836 25.5866C10.9836 25.1941 10.9881 24.8062 10.9491 24.4161C10.8987 23.9123 10.8855 23.4201 10.8855 22.9093" stroke="#7C5830" stroke-width="0.5" stroke-linecap="round"/>
<path d="M13.2084 11.0657C12.8966 11.0657 12.604 11.0432 12.325 11.1893C12.1651 11.273 12.0338 11.4274 11.8742 11.4983C11.7982 11.5321 11.7605 11.6006 11.6779 11.6292C11.6142 11.6512 11.5552 11.6817 11.4998 11.72C11.3124 11.8498 11.1799 12.4089 11.1799 12.6289C11.1799 12.7956 11.1472 12.9525 11.1472 13.1196C11.1472 13.3025 11.1777 13.5212 11.1308 13.6994C11.0903 13.8537 11.1369 14.017 11.0981 14.172C11.053 14.3525 11.0163 14.5443 11.0163 14.7318C11.0163 15.0814 10.8855 15.4178 10.8855 15.7606C10.8855 16.0144 10.82 16.2646 10.82 16.5131C10.82 16.67 10.7989 16.923 10.8855 17.0529" stroke="#7C5830" stroke-width="0.5" stroke-linecap="round"/>
<path d="M14.8115 14.9263V15.7443" stroke="#7C5830" stroke-width="0.5" stroke-linecap="round"/>
<path d="M14.6806 24.2507C14.6806 24.5266 14.694 24.8177 14.6407 25.0904C14.6117 25.2386 14.5825 25.375 14.5825 25.5266" stroke="#7C5830" stroke-width="0.5" stroke-linecap="round"/>
<path d="M14.6152 13.1596C14.7112 13.2886 14.8115 13.4244 14.8115 13.5849" stroke="#7C5830" stroke-width="0.2" stroke-linecap="round"/>
<path d="M15.3022 13.0288C15.3937 12.5486 15.4035 12.0909 14.935 11.7928C14.7038 11.6456 14.4562 11.5196 14.2298 11.3675C14.0302 11.2334 13.796 11.1631 13.6009 11.033" stroke="#7C5830" stroke-width="0.2" stroke-linecap="round"/>
<path d="M14.1244 11.262C14.5251 11.2716 15.0671 11.4967 15.2695 11.8509" stroke="#7C5830" stroke-width="0.2" stroke-linecap="round"/>
<path d="M15.5967 13.0615C15.5967 12.6715 15.6411 12.2957 15.4331 11.9491" stroke="#7C5830" stroke-width="0.2" stroke-linecap="round"/>
<path d="M10.6489 17.0308C10.6321 17.0843 10.6424 17.1386 10.6267 17.1902C10.6155 17.227 10.5968 17.2554 10.5968 17.2957C10.5968 17.3512 10.5968 17.4067 10.5968 17.4623C10.5968 17.4784 10.5889 17.5512 10.619 17.5095C10.6472 17.4703 10.6706 17.4187 10.7057 17.3857C10.7316 17.3613 10.7465 17.3059 10.775 17.2904C10.7917 17.2813 10.8269 17.2397 10.8376 17.2215C10.8431 17.2122 10.8638 17.1903 10.8742 17.1868" stroke="#7C5830" stroke-width="0.3" stroke-linecap="round"/>
<path d="M10.8309 23.0287C10.8004 22.9374 10.7962 22.8471 10.7962 22.7523C10.7962 22.7064 10.8016 22.6575 10.7895 22.6127C10.7866 22.6022 10.7586 22.5303 10.7837 22.5737C10.8084 22.6163 10.8484 22.6649 10.8829 22.6993" stroke="#7C5830" stroke-width="0.3" stroke-linecap="round"/>
<path d="M10.6802 17.6197C10.7139 17.5764 10.7591 17.5215 10.7712 17.4671C10.7813 17.4217 10.8339 17.3733 10.8497 17.3257" stroke="#7C5830" stroke-width="0.3" stroke-linecap="round"/>
<circle cx="14" cy="20" r="4" transform="rotate(90 14 20)" fill="#FFFBD5"/>
<path d="M14 24C11.7909 24 10 22.2091 10 20C10 17.7909 11.7909 16 14 16C15.5 16.5 15 17.7909 15 20C15 22.2091 18.5 22 14 24Z" fill="#3A311F"/>
<path d="M17.241 20.4706C17.241 20.6246 17.2361 20.7389 17.1964 20.8858C17.1688 20.9883 17.1579 21.1169 17.1156 21.2119C17.0334 21.3969 17.0404 21.5735 17.0404 21.7749" stroke="#7C5830" stroke-width="0.3" stroke-linecap="round"/>
<path d="M17.241 19.3418C17.241 19.1118 17.2812 18.8617 17.1463 18.6645C17.0121 18.4684 17.0153 18.1639 17.0153 17.9371" stroke="#7C5830" stroke-width="0.3" stroke-linecap="round"/>
<path d="M34.8213 19.0425C35.7701 19.3283 35.7701 20.6717 34.8213 20.9575L22.0384 24.808C21.3966 25.0014 20.75 24.5209 20.75 23.8505V16.1495C20.75 15.4791 21.3966 14.9986 22.0384 15.192L34.8213 19.0425Z" fill="#FBFF38" fill-opacity="0.7"/>
</svg>
