<svg width="40" height="40" viewBox="0 0 40 40" fill="none" xmlns="http://www.w3.org/2000/svg">
<rect x="2.15" y="2.15" width="35.7" height="35.7" rx="1.85" fill="#F3F3F3" stroke="#BEBEBE" stroke-width="0.3"/>
<rect x="4" y="4" width="32" height="32" rx="1" fill="#E0EFED"/>
<line x1="36.25" y1="4" x2="36.25" y2="37" stroke="#A8A8A8" stroke-width="0.5"/>
<path d="M36.3366 4.58813C36.724 4.97558 37.3836 5.4138 37.5545 5.98356C37.7092 6.49907 37.522 7.17002 37.2803 7.62097C36.6341 8.8263 35.7809 9.93522 35.2073 11.1781C34.5171 12.6736 34.9808 13.7953 35.6671 15.1789C36.1894 16.2319 36.6995 17.4069 36.6995 18.5989" stroke="#ACA2EE" stroke-width="0.8" stroke-linecap="round"/>
<path d="M35.9736 22.7368C36.245 23.2042 36.7064 23.6822 36.756 24.237C36.8419 25.1992 36.5245 26.0181 36.1188 26.8746C35.806 27.535 35.4177 28.2201 35.2073 28.9234C35.029 29.5194 34.8745 30.4396 35.1549 31.0246C35.4413 31.6225 35.9339 32.0678 36.1551 32.7024C36.4014 33.4092 36.6269 34.1474 36.6269 34.9004C36.6269 35.7943 36.2377 36.7003 35.8284 37.4734" stroke="#ACA2EE" stroke-width="0.8" stroke-linecap="round"/>
<ellipse cx="7" cy="18.5" rx="2" ry="2.5" fill="#BD7100"/>
<rect x="5" y="11" width="1" height="4" rx="0.5" fill="#BD7100"/>
<rect x="5" y="22" width="1" height="4" rx="0.5" fill="#BD7100"/>
</svg>
