<svg width="40" height="40" viewBox="0 0 40 40" fill="none" xmlns="http://www.w3.org/2000/svg">
<rect x="16" width="8" height="40" fill="#435C74"/>
<path d="M22.5 0C22.5 3 18 5.36585 18 11.2195C18 17.0732 22 16.0976 22 21.9512C22 27.8049 18 27.3171 18 30.7317C18 34.1463 22.5 34.5 22.5 40" stroke="#4D96A6"/>
<ellipse cx="32" cy="20" rx="8" ry="11" fill="#EFEFEF"/>
<rect x="24" y="9" width="8" height="22" fill="#EFEFEF"/>
<path d="M37.9 20C37.9 22.4716 37.3432 24.7042 36.4481 26.3154C35.5511 27.93 34.3279 28.9 33 28.9C31.6721 28.9 30.4489 27.93 29.5519 26.3154C28.6568 24.7042 28.1 22.4716 28.1 20C28.1 17.5284 28.6568 15.2958 29.5519 13.6846C30.4489 12.07 31.6721 11.1 33 11.1C34.3279 11.1 35.5511 12.07 36.4481 13.6846C37.3432 15.2958 37.9 17.5284 37.9 20Z" fill="#B3D9E6" stroke="#D3D3D3" stroke-width="0.2"/>
<rect x="25" y="18" width="7" height="3" rx="1.5" fill="#BD7100"/>
<path d="M26.9397 16.658C27.1286 17.177 26 17 26.342 17.9397C25.823 18.1286 26 17 25.0603 17.342C24.8714 16.8231 26 17 25.658 16.0603C26.177 15.8714 26 17 26.9397 16.658Z" fill="#BD7100"/>
<path d="M26.9397 21.658C27.1286 22.1769 26 22 26.342 22.9397C25.823 23.1286 26 22 25.0603 22.342C24.8714 21.823 26 22 25.658 21.0603C26.177 20.8714 25.829 21.5301 26.9397 21.658Z" fill="#BD7100"/>
</svg>
