<svg width="40" height="40" viewBox="0 0 40 40" fill="none" xmlns="http://www.w3.org/2000/svg">
<rect width="40" height="40" transform="matrix(0 1 1 0 0 0)" fill="#21232E"/>
<path d="M0.273685 0L0.273685 40" stroke="#43432D" stroke-opacity="0.4" stroke-width="0.5"/>
<path d="M40 0.267273H3.09944e-06" stroke="#43432D" stroke-opacity="0.4" stroke-width="0.5"/>
<path d="M40 39.7368H3.09944e-06" stroke="#43432D" stroke-opacity="0.4" stroke-width="0.5"/>
<path d="M39.7328 0V40" stroke="#43432D" stroke-opacity="0.4" stroke-width="0.5"/>
<line y1="-0.5" x2="40" y2="-0.5" transform="matrix(1 0 0 -1 0 26)" stroke="#43432D" stroke-opacity="0.4"/>
<path d="M0 13.5L40 13.5" stroke="#43432D" stroke-opacity="0.4"/>
<line y1="-0.5" x2="40" y2="-0.5" transform="matrix(0 1 1 0 14 0)" stroke="#43432D" stroke-opacity="0.4"/>
<line y1="-0.5" x2="40" y2="-0.5" transform="matrix(0 1 1 0 27 0)" stroke="#43432D" stroke-opacity="0.4"/>
<path d="M37.9301 34L36 36.4308" stroke="#313446" stroke-linecap="round"/>
<path d="M7.57351 37C6.71 37.5397 5.70424 38.0918 5 38.8521" stroke="#313446" stroke-linecap="round"/>
<path d="M4.35905 15C3.60047 16.3921 2.89975 17.8721 2 19.1672" stroke="#313446" stroke-linecap="round"/>
<path d="M18.394 15L17 15.926" stroke="#313446" stroke-linecap="round"/>
<path d="M25.4289 9L25 10.0418" stroke="#313446" stroke-linecap="round"/>
<path d="M16.8229 2C16.2053 2.40818 15.6024 2.83974 15 3.2733" stroke="#313446" stroke-linecap="round"/>
<path d="M2.64338 2L2 2.69453" stroke="#313446" stroke-linecap="round"/>
<path d="M23.394 36C22.8956 36.4035 22.3908 36.746 22 37.2733" stroke="#313446" stroke-linecap="round"/>
<path d="M38.5385 2C37.9978 2.36644 37.5087 2.79598 37 3.20782" stroke="#313446" stroke-linecap="round"/>
<path d="M29.4196 16L29 16.6039" stroke="#313446" stroke-linecap="round"/>
<rect width="8" height="40" rx="2" transform="matrix(0 1 1 0 0 0)" fill="#435C74"/>
<path d="M3.85858 4.14142C3.78047 4.06332 3.78047 3.93668 3.85858 3.85858L5.13137 2.58579C5.20948 2.50768 5.33611 2.50768 5.41421 2.58579C5.49232 2.66389 5.49232 2.79052 5.41421 2.86863L4.28284 4L5.41421 5.13137C5.49232 5.20948 5.49232 5.33611 5.41421 5.41421C5.33611 5.49232 5.20948 5.49232 5.13137 5.41421L3.85858 4.14142ZM8 4.2H6V3.8H8V4.2ZM6 4.2H4V3.8H6V4.2Z" fill="#FBFF31"/>
<path d="M15.7879 4.21213C15.6707 4.09497 15.6707 3.90503 15.7879 3.78787L17.6971 1.87868C17.8142 1.76152 18.0042 1.76152 18.1213 1.87868C18.2385 1.99584 18.2385 2.18579 18.1213 2.30294L16.4243 4L18.1213 5.69706C18.2385 5.81421 18.2385 6.00416 18.1213 6.12132C18.0042 6.23848 17.8142 6.23848 17.6971 6.12132L15.7879 4.21213ZM22 4.3L19 4.3V3.7L22 3.7V4.3ZM19 4.3L16 4.3V3.7L19 3.7V4.3Z" fill="#FBFF31"/>
<path d="M27.6818 4.3182C27.5061 4.14246 27.5061 3.85754 27.6818 3.6818L30.5456 0.81802C30.7213 0.642284 31.0062 0.642284 31.182 0.81802C31.3577 0.993756 31.3577 1.27868 31.182 1.45442L28.6364 4L31.182 6.54558C31.3577 6.72132 31.3577 7.00624 31.182 7.18198C31.0062 7.35772 30.7213 7.35772 30.5456 7.18198L27.6818 4.3182ZM37 4.45L32.5 4.45V3.55L37 3.55V4.45ZM32.5 4.45L28 4.45V3.55L32.5 3.55V4.45Z" fill="#FBFF31"/>
<rect width="8" height="40" rx="2" transform="matrix(0 1 1 0 0 32)" fill="#435C74"/>
<path d="M8.14142 35.8586C8.21953 35.9367 8.21953 36.0633 8.14142 36.1414L6.86863 37.4142C6.79052 37.4923 6.66389 37.4923 6.58579 37.4142C6.50768 37.3361 6.50768 37.2095 6.58579 37.1314L7.71716 36L6.58579 34.8686C6.50768 34.7905 6.50768 34.6639 6.58579 34.5858C6.66389 34.5077 6.79052 34.5077 6.86863 34.5858L8.14142 35.8586ZM4 35.8H6V36.2H4V35.8ZM6 35.8H8V36.2H6V35.8Z" fill="#FBFF31"/>
<path d="M22.2121 35.7879C22.3293 35.905 22.3293 36.095 22.2121 36.2121L20.3029 38.1213C20.1858 38.2385 19.9958 38.2385 19.8787 38.1213C19.7615 38.0042 19.7615 37.8142 19.8787 37.6971L21.5757 36L19.8787 34.3029C19.7615 34.1858 19.7615 33.9958 19.8787 33.8787C19.9958 33.7615 20.1858 33.7615 20.3029 33.8787L22.2121 35.7879ZM16 35.7H19V36.3H16V35.7ZM19 35.7H22V36.3H19V35.7Z" fill="#FBFF31"/>
<path d="M37.3182 35.6818C37.4939 35.8575 37.4939 36.1425 37.3182 36.3182L34.4544 39.182C34.2787 39.3577 33.9938 39.3577 33.818 39.182C33.6423 39.0062 33.6423 38.7213 33.818 38.5456L36.3636 36L33.818 33.4544C33.6423 33.2787 33.6423 32.9938 33.818 32.818C33.9938 32.6423 34.2787 32.6423 34.4544 32.818L37.3182 35.6818ZM28 35.55H32.5V36.45H28V35.55ZM32.5 35.55H37V36.45H32.5V35.55Z" fill="#FBFF31"/>
<rect x="0.5" y="0.5" width="23" height="4" transform="matrix(0 1 1 0 35 8)" fill="#4C3923" stroke="#453013"/>
<rect width="24" height="1" transform="matrix(0 1 1 0 34 8)" fill="#2E1B00"/>
<rect x="0.5" y="0.5" width="23" height="5" transform="matrix(0 1 1 0 28 8)" fill="#4C3923" stroke="#453013"/>
<rect width="24" height="1" transform="matrix(0 1 1 0 27 8)" fill="#2E1B00"/>
<rect x="0.5" y="0.5" width="23" height="5" transform="matrix(0 1 1 0 21 8)" fill="#4C3923" stroke="#453013"/>
<rect width="24" height="1" transform="matrix(0 1 1 0 20 8)" fill="#2E1B00"/>
<rect x="0.5" y="0.5" width="23" height="5" transform="matrix(0 1 1 0 14 8)" fill="#4C3923" stroke="#453013"/>
<rect width="24" height="1" transform="matrix(0 1 1 0 13 8)" fill="#2E1B00"/>
<rect x="0.5" y="0.5" width="23" height="5" transform="matrix(0 1 1 0 7 8)" fill="#4C3923" stroke="#453013"/>
<rect width="24" height="1" transform="matrix(0 1 1 0 6 8)" fill="#2E1B00"/>
<rect x="0.5" y="0.5" width="23" height="5" transform="matrix(0 1 1 0 0 8)" fill="#4C3923" stroke="#453013"/>
</svg>
