<svg width="40" height="40" viewBox="0 0 40 40" fill="none" xmlns="http://www.w3.org/2000/svg">
<path d="M9.25 4C9.25 3.58579 9.58579 3.25 10 3.25H30C30.4142 3.25 30.75 3.58579 30.75 4V36C30.75 36.4142 30.4142 36.75 30 36.75H10C9.58579 36.75 9.25 36.4142 9.25 36V4Z" fill="#DFCF7D" stroke="#5A4124" stroke-width="0.5"/>
<circle cx="20" cy="26" r="3.5" fill="#1C1205" stroke="#453013"/>
<path d="M19.8138 25.6006C19.5779 24.7813 19.5981 23.895 19.4811 23.0541C19.3568 22.1604 19.0503 21.3127 18.8177 20.4458C18.6911 19.974 18.472 19.3877 18.7923 18.9481C18.8273 18.9 18.9149 18.8406 18.9286 18.7791C18.9313 18.7668 18.9304 18.7244 18.9304 18.7627C18.9304 19.2584 19.0718 19.7038 19.1849 20.1768C19.2458 20.4317 19.3995 20.6629 19.4684 20.9202C19.5537 21.2385 19.6046 21.5318 19.6156 21.8636C19.6372 22.5109 19.6676 23.1543 19.7083 23.8011C19.7429 24.3507 19.7483 24.922 19.7483 25.4697" stroke="#22B61F" stroke-width="0.6" stroke-linecap="round"/>
<path d="M19.8465 25.6333C19.8574 25.2602 19.999 25.0852 20.2227 24.7954C20.6244 24.2752 20.9599 23.6601 21.2188 23.0578C21.737 21.8519 21.828 20.5128 22.4984 19.3662C22.8847 18.7053 23.3489 18.1059 23.9943 17.6831C24.1637 17.5721 24.0382 17.7401 23.9761 17.8212C23.7616 18.1014 23.5586 18.3895 23.329 18.6573C23.1943 18.8145 23.0398 18.9487 22.9055 19.1063C22.7112 19.3344 22.6157 19.6089 22.4602 19.8588C22.1146 20.4142 21.8923 21.0555 21.6786 21.6727C21.4218 22.4146 21.1931 23.1599 20.8389 23.863C20.6671 24.2039 20.4985 24.5977 20.2718 24.9063C20.1912 25.016 20.1082 25.1118 20.1082 25.2516C20.1082 25.3731 20.1093 24.999 20.1664 24.8917C20.3538 24.5394 20.6297 24.2364 20.8116 23.8811C21.1446 23.231 21.5782 22.634 21.9313 21.9963C22.2454 21.4288 22.5966 20.8987 22.871 20.3077C23.1403 19.7277 23.4378 19.1447 23.7725 18.5992C23.8863 18.4138 24.0171 18.2488 24.1469 18.0757C24.1502 18.0714 24.2574 17.9064 24.1833 17.9666C24.0984 18.0356 24.0707 18.1526 24.0124 18.2411C23.5421 18.9559 23.0205 19.6264 22.6201 20.3877C22.471 20.6713 22.3481 20.9677 22.2094 21.2565C22.0569 21.574 21.8675 21.8729 21.7204 22.1926C21.5257 22.6159 21.3972 23.0673 21.1806 23.4813C20.9411 23.939 20.6846 24.3861 20.4535 24.8481C20.3177 25.1197 20.106 25.376 19.9773 25.6333" stroke="#22B61F" stroke-width="0.6" stroke-linecap="round"/>
<path d="M19.9446 25.666C20.4746 25.4401 21.058 25.3147 21.6277 25.2407C22.5769 25.1173 23.5738 25.0876 24.5286 25.1662C25.3021 25.2298 25.9786 25.4547 26.628 25.8732C26.7375 25.9438 26.8387 26.0397 26.9533 26.1004C27.0704 26.1624 26.7027 26.0148 26.5789 25.9677C26.032 25.7596 25.458 25.6898 24.8812 25.6078C24.1203 25.4997 23.3985 25.3715 22.6274 25.3715C21.7328 25.3715 20.8269 25.3093 19.9446 25.4697" stroke="#22B61F" stroke-width="0.6" stroke-linecap="round"/>
<path d="M20.3394 25.188C19.3102 25.7105 18.6418 26.6531 18.3048 27.7606C18.249 27.944 18.2289 28.1327 18.2244 28.3234C18.2228 28.3915 18.2615 27.94 18.2739 27.8905C18.5045 26.9679 19.2985 26.3089 19.7828 25.5219" stroke="#22B61F" stroke-width="0.6" stroke-linecap="round"/>
<path d="M21.9 12.3727C21.9 13.1841 21.6806 13.9142 21.331 14.4385C20.981 14.9635 20.5084 15.2727 20 15.2727C19.4916 15.2727 19.019 14.9635 18.669 14.4385C18.3194 13.9142 18.1 13.1841 18.1 12.3727C18.1 11.5612 18.3194 10.8311 18.669 10.3068C19.019 9.78182 19.4916 9.47268 20 9.47268C20.5084 9.47268 20.981 9.78182 21.331 10.3068C21.6806 10.8311 21.9 11.5612 21.9 12.3727Z" fill="#E9E9E9" stroke="#CCCCCC" stroke-width="0.2"/>
<path d="M21 12.5247C21 13.0769 20.2704 13.5247 19.9943 13.5247C19.7181 13.5247 19 13.0769 19 12.5247C19 11.9724 19.7181 11.0247 19.9943 11.0247C20.2704 11.0247 21 11.9724 21 12.5247Z" fill="#D9E1EA"/>
<path d="M19.5 6.37268H20.5V10.3727H19.5V6.37268Z" fill="#E9E9E9"/>
<path d="M21.5 6.5C21.5 6.77614 20.8284 7 20 7C19.1716 7 18.5 6.77614 18.5 6.5C18.5 6.22385 19.1716 6 20 6C20.8284 6 21.5 6.22385 21.5 6.5Z" fill="#8E8E8E"/>
<path d="M20.9446 6.3288C20.8886 6.37118 20.8348 6.41483 20.781 6.45966" stroke="#1C1C1C" stroke-width="0.2" stroke-linecap="round"/>
<path d="M20.4211 6.36157C20.4084 6.42708 20.3978 6.492 20.3884 6.55787" stroke="#1C1C1C" stroke-width="0.2" stroke-linecap="round"/>
<path d="M20.0613 6.36157C20.0476 6.45902 20.0285 6.55731 20.0285 6.65603" stroke="#1C1C1C" stroke-width="0.2" stroke-linecap="round"/>
<path d="M19.7014 6.45972L19.6686 6.6233" stroke="#1C1C1C" stroke-width="0.2" stroke-linecap="round"/>
<path d="M19.1125 6.36157L19.1452 6.52516" stroke="#1C1C1C" stroke-width="0.2" stroke-linecap="round"/>
<path d="M19.7995 6.16522H19.6359" stroke="#1C1C1C" stroke-width="0.2" stroke-linecap="round"/>
</svg>
