<svg width="40" height="40" viewBox="0 0 40 40" fill="none" xmlns="http://www.w3.org/2000/svg">
<path d="M20.1063 2.65529C20.045 2.27753 20.2667 1.91109 20.6298 1.79007V1.79007C21.086 1.638 21.5699 1.93077 21.6468 2.40546L24.3937 19.3447C24.455 19.7225 24.2333 20.0889 23.8702 20.2099V20.2099C23.414 20.362 22.9301 20.0692 22.8532 19.5945L20.1063 2.65529Z" fill="#4D3A1F"/>
<path d="M25.3577 20.5407C25.4416 20.2221 25.7296 20 26.0591 20V20C26.5347 20 26.8816 20.45 26.7606 20.9099L22.1423 38.4593C22.0584 38.7779 21.7704 39 21.4409 39V39C20.9653 39 20.6184 38.55 20.7394 38.0901L25.3577 20.5407Z" fill="#4D3A1F"/>
<rect y="1" width="22" height="38" rx="1" fill="#896837"/>
<rect x="0.25" y="1.25" width="21.5" height="37.5" rx="0.75" stroke="black" stroke-opacity="0.44" stroke-width="0.5"/>
</svg>
